<?xml version="1.0" encoding="UTF-8" standalone="no"?>
<!DOCTYPE svg PUBLIC "-//W3C//DTD SVG 1.1//EN" "http://www.w3.org/Graphics/SVG/1.1/DTD/svg11.dtd">
<svg width="100%" height="100%" viewBox="0 0 509 580" version="1.1" xmlns="http://www.w3.org/2000/svg" xmlns:xlink="http://www.w3.org/1999/xlink" xml:space="preserve" xmlns:serif="http://www.serif.com/" style="fill-rule:evenodd;clip-rule:evenodd;stroke-linejoin:round;stroke-miterlimit:2;">
    <g transform="matrix(1,0,0,1,-926,-539.311)">
        <g transform="matrix(1,0,0,0.677792,-1951.35,-68.1827)">
            <g id="New-Logo" serif:id="New Logo" transform="matrix(3.49234,0,4.35337e-16,5.11275,-10051.3,-6021.76)">
                <g id="Bottom-Black" serif:id="Bottom Black" transform="matrix(1,0,0,1,0.648124,-4.74111)">
                    <g transform="matrix(1,0,0,1,-1940.98,-6392.63)">
                        <path d="M5726.73,7914.24L5739.96,7906.7L5785.35,7880.7L5787.9,7876.82L5785.3,7873.06L5717.19,7833.99L5718.14,7911.67L5726.73,7914.24Z" style="fill:rgb(64,64,64);"/>
                    </g>
                    <g transform="matrix(0.253828,-0.14559,0.253828,0.14559,465.861,1194.39)">
                        <circle cx="5646.38" cy="7637.39" r="26.308" style="fill:rgb(64,64,64);"/>
                    </g>
                </g>
                <g transform="matrix(1,0,0,1,-2016.12,-6202.14)">
                    <path d="M5792.98,7638.76L5860.98,7599.78L5863.64,7595.92L5861.01,7592.05L5799.59,7556.82L5792.84,7555.3L5786.19,7556.88L5724.78,7592.11L5720.06,7597.1L5718.82,7599.8L5718.13,7603.69L5718.14,7678.51L5718.77,7681.36L5720.25,7682.85L5786.45,7720.83L5792.98,7721.96" style="fill:rgb(64,64,64);"/>
                </g>
                <g transform="matrix(0.252538,-0.14485,0.252538,0.14485,422.163,1070.09)">
                    <circle cx="5646.38" cy="7637.39" r="26.308" style="fill:rgb(64,64,64);"/>
                </g>
                <g transform="matrix(0.252538,-0.14485,0.252538,0.14485,422.195,1226.41)">
                    <circle cx="5646.38" cy="7637.39" r="26.308" style="fill:rgb(64,64,64);"/>
                </g>
                <g transform="matrix(0.252538,-0.14485,0.252538,0.14485,422.195,1226.41)">
                    <clipPath id="_clip1">
                        <path d="M5737.68,7611.08L5705.18,7578.59L5607.89,7675.88L5640.39,7708.38L5737.68,7611.08Z"/>
                    </clipPath>
                    <g clip-path="url(#_clip1)">
                        <circle cx="5646.38" cy="7637.39" r="26.308" style="fill:rgb(255,119,0);"/>
                    </g>
                </g>
                <g transform="matrix(0.252538,-0.14485,1.40872e-17,0.292554,2282.73,-18.8131)">
                    <circle cx="5646.38" cy="7637.39" r="26.308" style="fill:rgb(64,64,64);"/>
                </g>
                <g transform="matrix(0.252538,-0.14485,1.40872e-17,0.292554,2282.73,56.0086)">
                    <circle cx="5646.38" cy="7637.39" r="26.308" style="fill:rgb(64,64,64);"/>
                </g>
                <g transform="matrix(1,0,0,1,-2024.11,-6229.68)">
                    <path d="M5809.84,7660.98C5809.84,7660.98 5801.13,7666.78 5801.13,7673.6C5801.13,7680.41 5800.57,7665.65 5800.57,7665.65L5809.84,7660.98Z" style="fill:rgb(64,64,64);"/>
                </g>
                <g id="Orange-Part" serif:id="Orange Part">
                    <g transform="matrix(1,0,0,1,-2024.4,-6229.35)">
                        <path d="M5824.1,7679.06L5869.35,7653.31L5871.74,7650.6L5872.1,7649.5L5872.1,7623.14L5869.35,7626.91L5807.87,7662.18L5803.32,7666.89L5801.26,7673.83L5801.26,7749.55L5802.44,7749.51L5807.88,7747.98L5824.1,7738.63L5824.1,7679.06Z" style="fill:rgb(255,119,0);"/>
                    </g>
                    <g transform="matrix(0.252538,-0.14485,0.252538,0.14485,483.643,1131.75)">
                        <circle cx="5646.38" cy="7637.39" r="26.308" style="fill:rgb(255,119,0);"/>
                    </g>
                    <g transform="matrix(0.252538,-0.14485,2.77556e-17,0.2897,2357.54,45.7716)">
                        <circle cx="5646.38" cy="7637.39" r="26.308" style="fill:rgb(255,119,0);"/>
                    </g>
                    <g transform="matrix(0.252538,-0.14485,2.77556e-17,0.2897,2380.42,58.8485)">
                        <clipPath id="_clip2">
                            <path d="M5646.38,7611.08L5610.17,7601.18L5620.07,7637.39L5630.61,7621.62L5646.38,7611.08Z"/>
                        </clipPath>
                        <g clip-path="url(#_clip2)">
                            <path d="M5646.38,7611.08C5660.9,7611.08 5620.07,7651.91 5620.07,7637.39C5620.07,7622.87 5631.86,7611.08 5646.38,7611.08ZM5646.38,7611.08L5617.88,7608.88L5620.07,7637.39" style="fill:rgb(255,119,0);"/>
                        </g>
                    </g>
                </g>
                <g transform="matrix(0.252538,-0.14485,0.252538,0.14485,483.643,1105.35)">
                    <circle cx="5646.38" cy="7637.39" r="26.308" style="fill:rgb(64,64,64);"/>
                </g>
            </g>
        </g>
    </g>
</svg>
